# Blender 4.4.1
# www.blender.org
mtllib grass.mtl
o pPlane1.001
v -0.712021 -0.209999 -0.000002
v 0.812021 -0.209999 -0.000002
v -0.687418 1.790001 -0.000001
v 0.787418 1.790001 -0.000001
v -0.629678 3.531020 -0.000001
v 0.729678 3.531020 -0.000001
v -0.534986 5.068840 -0.000001
v 0.634987 5.068840 -0.000001
v -0.441435 6.512552 -0.000000
v 0.540726 6.512552 -0.000000
v -0.309172 7.679717 -0.000003
v 0.423509 7.679717 -0.000003
v -0.166667 8.588266 -0.000001
v 0.280618 8.588266 -0.000001
v 0.055821 9.485145 -0.000009
vn -0.0000 -0.0000 1.0000
vt 0.400000 0.000000
vt 0.500000 0.000000
vt 0.500000 0.100000
vt 0.400000 0.100000
vt 0.500000 0.200000
vt 0.400000 0.200000
vt 0.500000 0.300000
vt 0.400000 0.300000
vt 0.500000 0.400000
vt 0.400000 0.400000
vt 0.500000 0.500000
vt 0.400000 0.500000
vt 0.500000 0.600000
vt 0.400000 0.600000
vt 0.450000 0.700000
s 1
usemtl lambert1.001
f 1/1/1 2/2/1 4/3/1 3/4/1
f 3/4/1 4/3/1 6/5/1 5/6/1
f 5/6/1 6/5/1 8/7/1 7/8/1
f 7/8/1 8/7/1 10/9/1 9/10/1
f 9/10/1 10/9/1 12/11/1 11/12/1
f 11/12/1 12/11/1 14/13/1 13/14/1
f 13/14/1 14/13/1 15/15/1
